<svg width="512" height="513" viewBox="0 0 512 513" fill="none" xmlns="http://www.w3.org/2000/svg">
<rect y="2" width="512" height="510.008" rx="70" fill="#FC3F1D"/>
<path d="M104.034 423.105C102.299 423.105 100.801 422.476 99.539 421.217C98.2773 419.957 97.6465 418.463 97.6465 416.732V306.733C97.6465 305.002 98.2773 303.508 99.539 302.248C100.801 300.989 102.299 300.36 104.034 300.36H146.38C148.115 300.36 149.613 300.989 150.875 302.248C152.136 303.508 152.767 305.002 152.767 306.733V381.088L138.336 376.84L185.65 304.373C186.439 303.114 187.385 302.169 188.489 301.54C189.751 300.753 191.091 300.36 192.511 300.36H230.125C231.861 300.36 233.358 300.989 234.62 302.248C235.882 303.508 236.513 305.002 236.513 306.733V416.732C236.513 418.463 235.882 419.957 234.62 421.217C233.358 422.476 231.861 423.105 230.125 423.105H187.779C186.045 423.105 184.546 422.476 183.285 421.217C182.023 419.957 181.392 418.463 181.392 416.732V342.377L195.823 346.625L148.509 419.092C147.72 420.351 146.695 421.374 145.434 422.161C144.33 422.79 143.068 423.105 141.648 423.105H104.034ZM170.273 284.781C159.707 284.781 150.954 283.129 144.014 279.824C137.232 276.519 132.107 272.034 128.637 266.369C125.325 260.704 123.669 254.252 123.669 247.013C123.669 245.754 123.985 244.732 124.615 243.945C125.404 243 126.587 242.528 128.164 242.528H156.316C157.735 242.528 158.839 243 159.628 243.945C160.416 244.732 160.811 245.754 160.811 247.013C160.811 250.003 161.441 252.521 162.703 254.567C163.965 256.612 166.488 257.635 170.273 257.635C174.058 257.635 176.582 256.612 177.844 254.567C179.105 252.521 179.736 250.003 179.736 247.013C179.736 245.754 180.13 244.732 180.919 243.945C181.708 243 182.812 242.528 184.231 242.528H212.383C213.802 242.528 214.906 243 215.695 243.945C216.484 244.732 216.878 245.754 216.878 247.013C216.878 254.252 215.142 260.704 211.673 266.369C208.361 272.034 203.236 276.519 196.296 279.824C189.514 283.129 180.84 284.781 170.273 284.781ZM259.244 423.105C257.983 423.105 256.878 422.633 255.932 421.689C254.985 420.745 254.512 419.643 254.512 418.384V305.081C254.512 303.822 254.985 302.721 255.932 301.776C256.878 300.832 257.983 300.36 259.244 300.36H299.697C302.852 300.36 305.375 301.933 307.267 305.081L332.817 347.098L358.366 305.081C360.259 301.933 362.783 300.36 365.936 300.36H406.39C407.809 300.36 408.992 300.832 409.938 301.776C410.885 302.721 411.358 303.822 411.358 305.081V418.384C411.358 419.643 410.885 420.745 409.938 421.689C408.992 422.633 407.809 423.105 406.39 423.105H361.915C360.495 423.105 359.313 422.633 358.366 421.689C357.578 420.745 357.183 419.643 357.183 418.384V356.067L371.378 360.08L345.355 401.389C344.567 402.805 343.699 403.906 342.753 404.693C341.806 405.48 340.545 405.873 338.968 405.873H326.666C325.405 405.873 324.222 405.558 323.117 404.929C322.014 404.142 320.988 402.962 320.042 401.389L294.492 359.844L308.45 356.067V418.384C308.45 419.643 307.977 420.745 307.031 421.689C306.084 422.633 304.981 423.105 303.719 423.105H259.244Z" fill="white"/>
<path d="M180.221 222.82C167.92 222.82 157.747 221.561 149.704 219.044C141.818 216.526 135.589 213.299 131.015 209.366C126.599 205.432 123.366 201.34 121.316 197.091C119.423 192.685 118.161 188.75 117.53 185.289C117.215 184.188 117.53 183.243 118.477 182.456C119.423 181.669 120.369 181.276 121.316 181.276H162.715C164.765 181.276 166.185 181.591 166.973 182.22C167.762 182.849 168.551 183.479 169.339 184.109C170.285 184.738 171.468 185.368 172.888 185.997C174.307 186.626 176.594 186.941 179.748 186.941C182.114 186.941 184.006 186.705 185.426 186.233C186.845 185.604 187.792 184.817 188.265 183.872C188.896 182.771 189.211 181.512 189.211 180.096C189.211 178.364 188.58 176.948 187.318 175.847C186.214 174.588 183.612 173.958 179.512 173.958H166.027C164.608 173.958 163.425 173.407 162.479 172.306C161.532 171.205 161.059 170.025 161.059 168.765V149.173C161.059 147.914 161.532 146.734 162.479 145.633C163.425 144.532 164.608 143.98 166.027 143.98H179.512C183.139 143.98 185.505 143.429 186.609 142.328C187.713 141.227 188.265 139.732 188.265 137.843C188.265 136.584 187.949 135.483 187.318 134.538C186.688 133.594 185.741 132.886 184.48 132.414C183.376 131.942 181.798 131.706 179.748 131.706C176.752 131.706 174.465 131.942 172.888 132.414C171.468 132.886 170.128 133.673 168.866 134.774C168.077 135.404 167.289 136.034 166.5 136.663C165.712 137.292 164.292 137.607 162.242 137.607H122.262C121.158 137.607 120.212 137.214 119.423 136.427C118.634 135.64 118.319 134.695 118.477 133.594C119.108 130.133 120.448 126.198 122.498 121.792C124.549 117.386 127.782 113.215 132.198 109.281C136.771 105.19 142.922 101.885 150.65 99.3673C158.378 96.6921 168.235 95.3545 180.221 95.3545C195.046 95.3545 206.874 96.8495 215.707 99.8394C224.696 102.672 231.163 106.764 235.105 112.114C239.048 117.307 241.02 123.523 241.02 130.762C241.02 135.483 239.837 140.204 237.471 144.925C235.105 149.646 231.005 153.343 225.17 156.019C232.424 158.536 237.314 162.707 239.837 168.529C242.518 174.194 243.859 179.781 243.859 185.289C243.859 192.37 241.414 198.743 236.525 204.409C231.636 210.074 224.46 214.559 214.997 217.863C205.534 221.168 193.942 222.82 180.221 222.82ZM301.737 222.82C292.747 222.82 284.783 221.168 277.843 217.863C270.903 214.559 265.462 210.074 261.52 204.409C257.735 198.743 255.842 192.37 255.842 185.289C255.842 173.801 260.494 164.832 269.8 158.379C279.263 151.77 291.88 147.128 307.651 144.452L332.727 140.44V140.204C332.727 136.112 332.333 133.122 331.544 131.234C330.914 129.345 328.942 128.401 325.63 128.401C323.422 128.401 321.608 128.873 320.189 129.817C318.927 130.605 317.508 131.785 315.931 133.358C314.196 135.09 311.988 135.955 309.307 135.955H269.09C267.513 135.955 266.172 135.483 265.068 134.538C264.122 133.594 263.728 132.335 263.886 130.762C264.043 127.772 265.305 124.309 267.671 120.376C270.036 116.284 273.664 112.35 278.553 108.573C283.6 104.796 289.987 101.649 297.715 99.1313C305.601 96.6134 315.064 95.3545 326.103 95.3545C336.828 95.3545 346.132 96.5347 354.019 98.8952C362.062 101.098 368.686 104.403 373.89 108.809C379.095 113.058 382.959 118.408 385.482 124.86C388.164 131.155 389.504 138.315 389.504 146.341V214.087C389.504 215.818 388.873 217.312 387.611 218.572C386.349 219.831 384.852 220.46 383.117 220.46H341.717C339.982 220.46 338.484 219.831 337.222 218.572C335.96 217.312 335.33 215.818 335.33 214.087V207.477C333.121 210.625 330.282 213.378 326.813 215.739C323.501 217.942 319.716 219.673 315.458 220.932C311.199 222.191 306.625 222.82 301.737 222.82ZM318.06 187.885C321.215 187.885 323.895 187.256 326.103 185.997C328.469 184.738 330.282 182.771 331.544 180.096C332.806 177.263 333.437 173.801 333.437 169.71V169.474L319.479 172.542C315.378 173.486 312.619 174.746 311.199 176.319C309.78 177.892 309.07 179.545 309.07 181.276C309.07 182.377 309.386 183.479 310.017 184.581C310.805 185.525 311.83 186.312 313.092 186.941C314.511 187.57 316.167 187.885 318.06 187.885Z" fill="white"/>
</svg>
