<svg width="64" height="64" viewBox="0 0 64 64" fill="none" xmlns="http://www.w3.org/2000/svg">
<rect width="64" height="64" fill="white"/>
<path d="M52.5201 24.3478C52.3405 22.0023 50.544 18.9952 48.7474 17.5517C46.7271 16.0746 44.628 14.7093 42.4595 13.4621C40.3073 12.181 38.0884 11.0166 35.8122 9.97381C34.5963 9.4757 33.2926 9.23019 31.9796 9.25211C30.6661 9.22439 29.3612 9.47012 28.147 9.97381C25.8711 11.0173 23.6522 12.1817 21.4997 13.4621C18.0264 15.567 15.2118 17.5517 15.2118 17.5517C14.2791 18.3356 13.4892 19.2616 12.8656 20.2878C12.794 20.4055 12.8803 20.5537 13.0184 20.5537H15.9373C16.0077 20.5537 16.0745 20.5227 16.1207 20.4698C16.4573 20.0838 16.8258 19.7228 17.2239 19.3911C17.2239 19.3911 19.7007 17.659 22.7573 15.8219C24.6515 14.7045 26.6041 13.6882 28.6068 12.7776C29.6753 12.338 30.8237 12.1235 31.9796 12.1477C33.135 12.1286 34.2823 12.3429 35.3523 12.7776C37.3553 13.6876 39.308 14.7038 41.2018 15.8219C43.1101 16.9103 44.9574 18.1019 46.7352 19.3911C48.3162 20.6507 49.8971 23.2751 50.0553 25.3222C50.0553 25.3222 50.4241 28.3665 50.4769 31.9724C50.4736 34.1993 50.3505 36.4245 50.1079 38.6383C49.7403 40.9564 48.5422 43.0633 46.7352 44.5694C46.7352 44.5694 44.2584 46.354 41.2018 48.1911C39.3076 49.3085 37.355 50.3248 35.3523 51.2354C34.2838 51.675 33.1354 51.8894 31.9796 51.8653C30.8252 51.8894 29.6779 51.6805 28.6068 51.2512C26.6038 50.3411 24.6512 49.3249 22.7573 48.2069C19.7007 46.4223 17.2239 44.5852 17.2239 44.5852C16.9022 44.3289 16.5805 44.0161 16.2704 43.6632C16.2242 43.6105 16.1576 43.5798 16.0875 43.5798H13.1578C13.018 43.5798 12.9319 43.7315 13.0065 43.8494C13.6576 44.8788 14.4347 45.7957 15.2118 46.42C15.2118 46.42 18.0264 48.525 21.4997 50.5699C23.6519 51.851 25.8708 53.0154 28.147 54.0581C29.3641 54.5501 30.6679 54.7895 31.9796 54.7618C33.293 54.7895 34.598 54.5438 35.8122 54.04C38.088 52.9966 40.3069 51.8322 42.4595 50.5518C45.9328 48.4468 48.7474 46.402 48.7474 46.402C50.8007 44.6762 52.1622 42.262 52.58 39.6059C52.8556 37.0692 52.9956 34.5195 52.9992 31.9678C52.9393 27.836 52.5201 24.3478 52.5201 24.3478Z" fill="url(#paint0_linear_1012_93)"/>
<path d="M13.14 31C13.052 31 12.98 30.972 12.924 30.916C12.868 30.86 12.84 30.788 12.84 30.7V22.9C12.84 22.812 12.868 22.74 12.924 22.684C12.98 22.628 13.052 22.6 13.14 22.6H16.404C17.436 22.6 18.248 22.84 18.84 23.32C19.44 23.792 19.74 24.464 19.74 25.336C19.74 25.904 19.6 26.384 19.32 26.776C19.048 27.168 18.688 27.464 18.24 27.664L19.896 30.616C19.92 30.664 19.932 30.708 19.932 30.748C19.932 30.812 19.904 30.872 19.848 30.928C19.8 30.976 19.74 31 19.668 31H18.084C17.932 31 17.82 30.964 17.748 30.892C17.676 30.812 17.624 30.74 17.592 30.676L16.224 28.036H14.988V30.7C14.988 30.788 14.96 30.86 14.904 30.916C14.848 30.972 14.776 31 14.688 31H13.14ZM14.988 26.344H16.38C16.756 26.344 17.036 26.252 17.22 26.068C17.412 25.884 17.508 25.632 17.508 25.312C17.508 25 17.416 24.748 17.232 24.556C17.056 24.364 16.772 24.268 16.38 24.268H14.988V26.344ZM23.2969 31.12C22.8409 31.12 22.4329 31.016 22.0729 30.808C21.7209 30.6 21.4449 30.296 21.2449 29.896C21.0449 29.488 20.9449 28.992 20.9449 28.408V25.06C20.9449 24.972 20.9729 24.9 21.0289 24.844C21.0849 24.788 21.1569 24.76 21.2449 24.76H22.7449C22.8329 24.76 22.9049 24.788 22.9609 24.844C23.0169 24.9 23.0449 24.972 23.0449 25.06V28.336C23.0449 29.12 23.3969 29.512 24.1009 29.512C24.4289 29.512 24.6889 29.412 24.8809 29.212C25.0809 29.004 25.1809 28.712 25.1809 28.336V25.06C25.1809 24.972 25.2089 24.9 25.2649 24.844C25.3209 24.788 25.3929 24.76 25.4809 24.76H26.9809C27.0689 24.76 27.1409 24.788 27.1969 24.844C27.2529 24.9 27.2809 24.972 27.2809 25.06V30.7C27.2809 30.788 27.2529 30.86 27.1969 30.916C27.1409 30.972 27.0689 31 26.9809 31H25.5889C25.5089 31 25.4369 30.972 25.3729 30.916C25.3169 30.86 25.2889 30.788 25.2889 30.7V30.244C25.0809 30.532 24.8089 30.752 24.4729 30.904C24.1449 31.048 23.7529 31.12 23.2969 31.12Z" fill="#0F67B1"/>
<path d="M15.972 42.12C15.364 42.12 14.84 42.052 14.4 41.916C13.968 41.78 13.612 41.6 13.332 41.376C13.052 41.152 12.84 40.904 12.696 40.632C12.56 40.352 12.476 40.076 12.444 39.804C12.436 39.732 12.46 39.672 12.516 39.624C12.572 39.576 12.636 39.552 12.708 39.552H14.244C14.34 39.552 14.412 39.568 14.46 39.6C14.516 39.632 14.568 39.688 14.616 39.768C14.704 39.96 14.852 40.116 15.06 40.236C15.276 40.348 15.568 40.404 15.936 40.404C16.224 40.404 16.472 40.368 16.68 40.296C16.888 40.224 17.048 40.12 17.16 39.984C17.28 39.84 17.34 39.672 17.34 39.48C17.34 39.168 17.224 38.932 16.992 38.772C16.76 38.612 16.432 38.532 16.008 38.532H15.132C15.044 38.532 14.972 38.504 14.916 38.448C14.86 38.384 14.832 38.308 14.832 38.22V37.26C14.832 37.172 14.86 37.096 14.916 37.032C14.972 36.968 15.044 36.936 15.132 36.936H15.996C16.324 36.936 16.592 36.868 16.8 36.732C17.008 36.588 17.112 36.368 17.112 36.072C17.112 35.904 17.064 35.756 16.968 35.628C16.88 35.492 16.748 35.388 16.572 35.316C16.404 35.244 16.196 35.208 15.948 35.208C15.596 35.208 15.312 35.264 15.096 35.376C14.888 35.488 14.756 35.648 14.7 35.856C14.66 35.928 14.616 35.984 14.568 36.024C14.52 36.056 14.452 36.072 14.364 36.072H12.78C12.708 36.072 12.644 36.048 12.588 36C12.54 35.944 12.52 35.88 12.528 35.808C12.552 35.528 12.632 35.248 12.768 34.968C12.912 34.688 13.116 34.44 13.38 34.224C13.652 34 14.004 33.82 14.436 33.684C14.868 33.548 15.388 33.48 15.996 33.48C16.684 33.48 17.272 33.592 17.76 33.816C18.256 34.032 18.64 34.32 18.912 34.68C19.184 35.04 19.32 35.436 19.32 35.868C19.32 36.068 19.292 36.276 19.236 36.492C19.18 36.7 19.084 36.9 18.948 37.092C18.82 37.276 18.628 37.44 18.372 37.584C18.676 37.728 18.912 37.908 19.08 38.124C19.256 38.34 19.38 38.572 19.452 38.82C19.532 39.068 19.572 39.316 19.572 39.564C19.572 40.076 19.424 40.524 19.128 40.908C18.84 41.284 18.428 41.58 17.892 41.796C17.356 42.012 16.716 42.12 15.972 42.12ZM22.6308 42.12C22.1988 42.12 21.8108 42.04 21.4668 41.88C21.1308 41.712 20.8628 41.488 20.6628 41.208C20.4628 40.928 20.3628 40.612 20.3628 40.26C20.3628 39.692 20.5948 39.244 21.0588 38.916C21.5228 38.58 22.1388 38.352 22.9068 38.232L24.4068 38.004V37.836C24.4068 37.548 24.3468 37.328 24.2268 37.176C24.1068 37.024 23.8868 36.948 23.5668 36.948C23.3428 36.948 23.1588 36.992 23.0148 37.08C22.8788 37.168 22.7708 37.288 22.6908 37.44C22.6188 37.544 22.5188 37.596 22.3908 37.596H21.0468C20.9588 37.596 20.8908 37.572 20.8428 37.524C20.7948 37.468 20.7748 37.404 20.7828 37.332C20.7828 37.188 20.8348 37.024 20.9388 36.84C21.0508 36.648 21.2188 36.46 21.4428 36.276C21.6668 36.092 21.9548 35.94 22.3068 35.82C22.6588 35.7 23.0828 35.64 23.5788 35.64C24.0988 35.64 24.5428 35.7 24.9108 35.82C25.2788 35.94 25.5748 36.108 25.7988 36.324C26.0308 36.54 26.2028 36.796 26.3148 37.092C26.4268 37.38 26.4828 37.7 26.4828 38.052V41.7C26.4828 41.788 26.4508 41.86 26.3868 41.916C26.3308 41.972 26.2628 42 26.1828 42H24.7908C24.7028 42 24.6308 41.972 24.5748 41.916C24.5188 41.86 24.4908 41.788 24.4908 41.7V41.28C24.3868 41.432 24.2468 41.572 24.0708 41.7C23.8948 41.828 23.6868 41.928 23.4468 42C23.2148 42.08 22.9428 42.12 22.6308 42.12ZM23.1948 40.752C23.4268 40.752 23.6348 40.704 23.8188 40.608C24.0108 40.504 24.1588 40.348 24.2628 40.14C24.3748 39.924 24.4308 39.656 24.4308 39.336V39.168L23.4108 39.348C23.0348 39.412 22.7588 39.512 22.5828 39.648C22.4148 39.776 22.3308 39.928 22.3308 40.104C22.3308 40.24 22.3708 40.356 22.4508 40.452C22.5308 40.548 22.6348 40.624 22.7628 40.68C22.8908 40.728 23.0348 40.752 23.1948 40.752ZM28.1249 42C28.0449 42 27.9769 41.972 27.9209 41.916C27.8649 41.86 27.8369 41.792 27.8369 41.712V36.06C27.8369 35.972 27.8649 35.9 27.9209 35.844C27.9769 35.788 28.0489 35.76 28.1369 35.76H29.5529C29.6329 35.76 29.7009 35.788 29.7569 35.844C29.8209 35.9 29.8529 35.972 29.8529 36.06V40.44L29.3129 40.176L32.2769 35.952C32.3169 35.896 32.3649 35.852 32.4209 35.82C32.4769 35.78 32.5409 35.76 32.6129 35.76H33.8969C33.9769 35.76 34.0449 35.788 34.1009 35.844C34.1569 35.9 34.1849 35.968 34.1849 36.048V41.7C34.1849 41.788 34.1569 41.86 34.1009 41.916C34.0449 41.972 33.9729 42 33.8849 42H32.4689C32.3809 42 32.3089 41.972 32.2529 41.916C32.1969 41.86 32.1689 41.788 32.1689 41.7V37.452L32.7209 37.56L29.7329 41.808C29.7009 41.864 29.6569 41.912 29.6009 41.952C29.5449 41.984 29.4769 42 29.3969 42H28.1249ZM31.1009 34.944C30.6049 34.944 30.2009 34.868 29.8889 34.716C29.5769 34.564 29.3489 34.356 29.2049 34.092C29.0689 33.828 29.0009 33.54 29.0009 33.228C29.0009 33.164 29.0169 33.112 29.0489 33.072C29.0889 33.024 29.1489 33 29.2289 33H30.1889C30.2609 33 30.3169 33.024 30.3569 33.072C30.3969 33.112 30.4169 33.164 30.4169 33.228C30.4169 33.396 30.4609 33.544 30.5489 33.672C30.6449 33.8 30.8289 33.864 31.1009 33.864C31.3809 33.864 31.5649 33.8 31.6529 33.672C31.7489 33.544 31.7969 33.396 31.7969 33.228C31.7969 33.164 31.8169 33.112 31.8569 33.072C31.8969 33.024 31.9529 33 32.0249 33H32.9849C33.0569 33 33.1129 33.024 33.1529 33.072C33.1929 33.112 33.2129 33.164 33.2129 33.228C33.2129 33.54 33.1409 33.828 32.9969 34.092C32.8609 34.356 32.6369 34.564 32.3249 34.716C32.0129 34.868 31.6049 34.944 31.1009 34.944ZM35.7293 42C35.6653 42 35.6093 41.976 35.5613 41.928C35.5133 41.88 35.4893 41.82 35.4893 41.748V36C35.4893 35.936 35.5133 35.88 35.5613 35.832C35.6093 35.784 35.6653 35.76 35.7293 35.76H37.1093C37.2533 35.76 37.3693 35.832 37.4573 35.976L39.0893 38.892L40.7333 35.976C40.8213 35.832 40.9373 35.76 41.0813 35.76H42.4613C42.5333 35.76 42.5933 35.784 42.6413 35.832C42.6893 35.88 42.7133 35.936 42.7133 36V41.748C42.7133 41.82 42.6893 41.88 42.6413 41.928C42.5933 41.976 42.5333 42 42.4613 42H40.9733C40.9013 42 40.8413 41.976 40.7933 41.928C40.7453 41.88 40.7213 41.82 40.7213 41.748V37.836L41.3093 37.968L39.6893 40.8C39.6493 40.872 39.6013 40.936 39.5453 40.992C39.4973 41.04 39.4253 41.064 39.3293 41.064H38.8493C38.7693 41.064 38.7013 41.04 38.6453 40.992C38.5893 40.944 38.5373 40.88 38.4893 40.8L36.9173 38.04L37.4693 37.92V41.748C37.4693 41.82 37.4453 41.88 37.3973 41.928C37.3493 41.976 37.2893 42 37.2173 42H35.7293Z" fill="#EE2F53"/>
<defs>
<linearGradient id="paint0_linear_1012_93" x1="32.5628" y1="9.08433" x2="32.5628" y2="54.7021" gradientUnits="userSpaceOnUse">
<stop stop-color="#0F67B1"/>
<stop offset="0.4" stop-color="#0F67B1"/>
<stop offset="0.66" stop-color="#EE2F53"/>
<stop offset="1" stop-color="#EE2F53"/>
</linearGradient>
</defs>
</svg>
