<svg width="133" height="108" viewBox="0 0 133 108" fill="none" xmlns="http://www.w3.org/2000/svg">
<path d="M120.176 51.164C127.149 43.5317 126.637 31.671 119.034 24.6723C111.43 17.6736 99.6135 18.1872 92.641 25.8194L69.4114 51.2471C62.4389 58.8793 62.9505 70.7401 70.5542 77.7388C78.1578 84.7375 89.9741 84.2239 96.9466 76.5917L120.176 51.164Z" fill="#0ACDF3"/>
<path d="M63.2614 58.5264C70.1645 50.8308 69.5455 38.9753 61.8788 32.0462C54.2122 25.1171 42.401 25.7384 35.4979 33.434L12.4993 59.0725C5.59619 66.768 6.21519 78.6236 13.8819 85.5526C21.5486 92.4817 33.3598 91.8604 40.2629 84.1649L63.2614 58.5264Z" fill="#FF9B00"/>
<path d="M92.3334 26.2118C95.9689 29.5185 98.9201 33.5117 101.018 37.9632C103.116 42.4148 104.32 47.2374 104.562 52.1561C104.803 57.0747 104.076 61.9928 102.424 66.6297C100.772 71.2665 98.2258 75.5313 94.9314 79.1807C91.637 82.8299 87.6588 85.7919 83.224 87.8979C78.7891 90.0039 73.9844 91.2125 69.0843 91.4547C64.184 91.6968 59.2843 90.9678 54.6648 89.3093C50.0452 87.6507 45.7964 85.0952 42.1609 81.7884L67.2471 54L92.3334 26.2118Z" fill="#0385F2"/>
<path d="M42.1503 81.7789C38.5159 78.4708 35.5663 74.4766 33.4699 70.0243C31.3734 65.572 30.1712 60.7488 29.9318 55.8301C29.6922 50.9113 30.4204 45.9934 32.0744 41.3572C33.7285 36.721 36.2762 32.4571 39.5719 28.8091C42.8676 25.1611 46.8468 22.2004 51.2824 20.0962C55.7181 17.9919 60.5233 16.785 65.4235 16.5447C70.3239 16.3044 75.2233 17.0352 79.8422 18.6955C84.461 20.3557 88.709 22.9129 92.3433 26.221L67.2468 54L42.1503 81.7789Z" fill="#FF004F"/>
</svg>
